# ProBuilder 4.1.0
# https://unity3d.com/unity/features/worldbuilding/probuilder
# 12/12/2019 1:38:11 PM

mtllib ./Floor.mtl
o Floor

g Floor
v 9 -3 7
v 8 -3 7
v 8 -2 7
v 9 -2 7
v 8 -3 -15
v 9 -3 -15
v 9 -2 -15
v 8 -2 -15
v -12 -3 7
v -13 -3 7
v -13 -2 7
v -12 -2 7
v -12 -2 -15
v -13 -2 -15
v -13 -3 -15
v -12 -3 -15
v -13 -3 -14
v -13 -2 -14
v 9 -3 -14
v 9 -2 -14
v 8 4.0001 -15
v 9 4.0001 -15
v 9 4.0001 -14
v 8 4.0001 -14
v 8 -3 -14
v -13 4.0001 -15
v -12 4.0001 -15
v -12 4.0001 -14
v -13 4.0001 -14
v -12 -3 -14
v -13 -3 6
v -13 -2 6
v 9 -2 6
v 9 -3 6
v 9 4.0001 6
v 9 4.0001 7
v 8 4.0001 7
v 8 4.0001 6
v 8 -3 6
v -12 4.0001 6
v -12 4.0001 7
v -13 4.0001 7
v -13 4.0001 6
v -12 -3 6
v -6 -3 7
v -6 -2 7
v -6 -2 -15
v -6 -3 -15
v -6 4.0001 -15
v -6 4.0001 -14
v -6 -3 -14
v -6 4.0001 6
v -6 4.0001 7
v -6 -3 6
v -6 -2 -14
v -12 -2 -14
v -12 -2 6
v -6 -2 6
v -5 -3 7
v -5 -2 7
v -5 -2 -15
v -5 -3 -15
v -5 4.0001 -15
v -5 4.0001 -14
v -5 -3 -14
v -5 4.0001 6
v -5 4.0001 7
v -5 -3 6
v -5 -2 -14
v -5 -2 6
v 1.5 -3 7
v 1.5 -2 7
v 1.5 -2 -15
v 1.5 -3 -15
v 1.5 4.0001 -15
v 1.5 4.0001 -14
v 1.5 -3 -14
v 1.5 4.0001 6
v 1.5 4.0001 7
v 1.5 -3 6
v 8 -2 -14
v 2 -2 -14
v 8 -2 6
v 2 -2 6
v 1 -3 7
v 1 -2 7
v 1 -2 -15
v 1 -3 -15
v 1 4.0001 -15
v 1 4.0001 -14
v 1 -3 -14
v 1 4.0001 6
v 1 4.0001 7
v 1 -3 6
v 1 -2 -14
v 1 -2 6
v -13 -3 -6
v -13 -2 -6
v 9 -2 -6
v 9 -3 -6
v 9 4.0001 -6
v 8 4.0001 -6
v 8 -3 -6
v -12 4.0001 -6
v -13 4.0001 -6
v -12 -3 -6
v -12 -2 -6
v 8 -2 -6
v -6 -2 -6
v -6 -3 -6
v -5 -2 -6
v -5 -3 -6
v 2 -2 -6
v 1.5 -3 -6
v 1 -2 -6
v 1 -3 -6
v -13 -3 1
v -13 -2 1
v 9 -2 1
v 9 -3 1
v 9 4.0001 1
v 8 4.0001 1
v 8 -3 1
v -12 4.0001 1
v -13 4.0001 1
v -12 -3 1
v -12 -2 1
v 8 -2 1
v -6 -2 1
v -6 -3 1
v -6 1 -6
v -5 1 -6
v -5 1 1
v -6 1 1
v -5 -2 1
v -5 -3 1
v 2 -2 1
v 1.5 -3 1
v 1 -2 1
v 1 1 -6
v 2 1 -6
v 2 1 1
v 1 1 1
v 1 -3 1

vt 9 -3
vt 8 -3
vt 8 -2
vt 9 -2
vt -8 -3
vt -9 -3
vt -9 -2
vt -8 -2
vt -12 -3
vt -13 -3
vt -13 -2
vt -12 -2
vt 12 -2
vt 13 -2
vt 13 -3
vt 12 -3
vt -14 -3
vt -15 -3
vt -15 -2
vt -14 -2
vt 15 -3
vt 14 -3
vt 14 -2
vt 15 -2
vt -8 -15
vt -9 -15
vt -9 -14
vt -8 -14
vt 8 -15
vt 8 -14
vt 9 -14
vt 9 -15
vt 13 -15
vt 12 -15
vt 12 -14
vt 13 -14
vt -13 -15
vt -13 -14
vt -12 -14
vt -12 -15
vt 7 -3
vt 6 -3
vt 6 -2
vt 7 -2
vt -7 -3
vt -7 -2
vt -6 -2
vt -6 -3
vt -9 6
vt -9 7
vt -8 7
vt -8 6
vt 8 6
vt 8 7
vt 9 7
vt 9 6
vt 12 6
vt 12 7
vt 13 7
vt 13 6
vt -13 6
vt -13 7
vt -12 7
vt -12 6
vt -12 4.0001
vt -13 4.0001
vt 13 4.0001
vt 12 4.0001
vt -14 4.0001
vt -15 4.0001
vt -8 4.0001
vt -9 4.0001
vt 15 4.0001
vt 14 4.0001
vt -6 4.0001
vt -7 4.0001
vt 7 4.0001
vt 6 4.0001
vt 9 4.0001
vt 8 4.0001
vt 6 -15
vt 6 -14
vt -6 -14
vt -6 -15
vt 6 6
vt 6 7
vt -6 7
vt -6 6
vt -5 -3
vt -5 -2
vt 5 -2
vt 5 -3
vt 5 -15
vt 5 -14
vt -5 -14
vt -5 -15
vt 5 6
vt 5 7
vt -5 7
vt -5 6
vt 5 4.0001
vt -5 4.0001
vt 1.5 -3
vt 1.5 -2
vt -1.5 -2
vt -1.5 -3
vt -1.5 -15
vt -1.5 -14
vt 1.5 -14
vt 1.5 -15
vt -1.5 6
vt -1.5 7
vt 1.5 7
vt 1.5 6
vt -1.5 4.0001
vt 2 -2
vt 1.5 4.0001
vt -2 -2
vt 1 -3
vt 1 -2
vt -1 -2
vt -1 -3
vt -1 -15
vt -1 -14
vt 1 -14
vt 1 -15
vt -1 6
vt -1 7
vt 1 7
vt 1 6
vt -1 4.0001
vt 1 4.0001
vt -9 -6
vt -8 -6
vt 8 -6
vt 9 -6
vt 12 -6
vt 13 -6
vt -13 -6
vt -12 -6
vt 6 -6
vt -6 -6
vt 5 -6
vt -5 -6
vt -2 -14
vt -2 -6
vt 1.5 -6
vt -1 -6
vt 1 -6
vt -9 1
vt -8 1
vt 8 1
vt 9 1
vt 12 1
vt 13 1
vt -13 1
vt -12 1
vt 6 1
vt -6 1
vt 5 1
vt -5 1
vt -2 1
vt -2 6
vt 1.5 1
vt -1 1
vt 1 1
vt 2 1

vn 0 0 1
vn 0 0 -1
vn -1 0 0
vn 1 0 0
vn 0 1 0
vn 0 -1 0

usemtl GridWorldSpace
f 4/4/1 3/3/1 2/2/1 1/1/1
f 5/5/2 8/8/2 7/7/2 6/6/2
f 12/12/1 11/11/1 10/10/1 9/9/1
f 15/15/2 14/14/2 13/13/2 16/16/2
f 18/20/3 14/19/3 15/18/3 17/17/3
f 6/21/4 7/24/4 20/23/4 19/22/4
f 24/28/5 23/27/5 22/26/5 21/25/5
f 6/32/6 19/31/6 25/30/6 5/29/6
f 29/36/5 28/35/5 27/34/5 26/33/5
f 16/40/6 30/39/6 17/38/6 15/37/6
f 11/44/3 32/43/3 31/42/3 10/41/3
f 34/48/4 33/47/4 4/46/4 1/45/4
f 37/51/5 36/50/5 35/49/5 38/52/5
f 34/56/6 1/55/6 2/54/6 39/53/6
f 42/59/5 41/58/5 40/57/5 43/60/5
f 44/64/6 9/63/6 10/62/6 31/61/6
f 41/65/1 42/66/1 11/11/1 12/12/1
f 26/67/2 27/68/2 13/13/2 14/14/2
f 29/69/3 26/70/3 14/19/3 18/20/3
f 21/71/2 22/72/2 7/7/2 8/8/2
f 22/73/4 23/74/4 20/23/4 7/24/4
f 35/75/4 36/76/4 4/46/4 33/47/4
f 42/77/3 43/78/3 32/43/3 11/44/3
f 36/79/1 37/80/1 3/3/1 4/4/1
f 46/47/1 12/12/1 9/9/1 45/48/1
f 16/16/2 13/13/2 47/43/2 48/42/2
f 28/35/5 50/82/5 49/81/5 27/34/5
f 48/84/6 51/83/6 30/39/6 16/40/6
f 41/58/5 53/86/5 52/85/5 40/57/5
f 54/88/6 45/87/6 9/63/6 44/64/6
f 13/13/2 27/68/2 49/78/2 47/43/2
f 50/75/1 28/65/1 56/12/1 55/47/1
f 57/13/2 40/68/2 52/78/2 58/43/2
f 53/75/1 41/65/1 12/12/1 46/47/1
f 60/90/1 46/47/1 45/48/1 59/89/1
f 48/42/2 47/43/2 61/91/2 62/92/2
f 50/82/5 64/94/5 63/93/5 49/81/5
f 62/96/6 65/95/6 51/83/6 48/84/6
f 53/86/5 67/98/5 66/97/5 52/85/5
f 68/100/6 59/99/6 45/87/6 54/88/6
f 47/43/2 49/78/2 63/101/2 61/91/2
f 64/102/1 50/75/1 55/47/1 69/90/1
f 58/43/2 52/78/2 66/101/2 70/91/2
f 67/102/1 53/75/1 46/47/1 60/90/1
f 3/3/1 72/104/1 71/103/1 2/2/1
f 74/106/2 73/105/2 8/8/2 5/5/2
f 76/108/5 24/28/5 21/25/5 75/107/5
f 5/29/6 25/30/6 77/109/6 74/110/6
f 79/112/5 37/51/5 38/52/5 78/111/5
f 39/53/6 2/54/6 71/113/6 80/114/6
f 8/8/2 73/105/2 75/115/2 21/71/2
f 24/80/1 76/117/1 82/116/1 81/3/1
f 83/8/2 84/118/2 78/115/2 38/71/2
f 37/80/1 79/117/1 72/104/1 3/3/1
f 72/104/1 86/120/1 85/119/1 71/103/1
f 86/120/1 60/90/1 59/89/1 85/119/1
f 88/122/2 87/121/2 73/105/2 74/106/2
f 62/92/2 61/91/2 87/121/2 88/122/2
f 64/94/5 90/124/5 89/123/5 63/93/5
f 90/124/5 76/108/5 75/107/5 89/123/5
f 88/126/6 91/125/6 65/95/6 62/96/6
f 74/110/6 77/109/6 91/125/6 88/126/6
f 67/98/5 93/128/5 92/127/5 66/97/5
f 93/128/5 79/112/5 78/111/5 92/127/5
f 94/130/6 85/129/6 59/99/6 68/100/6
f 80/114/6 71/113/6 85/129/6 94/130/6
f 87/121/2 89/131/2 75/115/2 73/105/2
f 61/91/2 63/101/2 89/131/2 87/121/2
f 76/117/1 90/132/1 95/120/1 82/116/1
f 90/132/1 64/102/1 69/90/1 95/120/1
f 96/121/2 92/131/2 78/115/2 84/118/2
f 70/91/2 66/101/2 92/131/2 96/121/2
f 79/117/1 93/132/1 86/120/1 72/104/1
f 93/132/1 67/102/1 60/90/1 86/120/1
f 98/47/3 18/20/3 17/17/3 97/48/3
f 19/22/4 20/23/4 99/43/4 100/42/4
f 102/134/5 101/133/5 23/27/5 24/28/5
f 19/31/6 100/136/6 103/135/6 25/30/6
f 105/138/5 104/137/5 28/35/5 29/36/5
f 30/39/6 106/140/6 97/139/6 17/38/6
f 56/23/4 28/74/4 104/78/4 107/43/4
f 105/75/3 29/69/3 18/20/3 98/47/3
f 20/23/4 23/74/4 101/78/4 99/43/4
f 102/75/3 24/69/3 81/20/3 108/47/3
f 107/137/5 109/141/5 55/82/5 56/35/5
f 51/83/6 110/142/6 106/140/6 30/39/6
f 109/141/5 111/143/5 69/94/5 55/82/5
f 65/95/6 112/144/6 110/142/6 51/83/6
f 113/146/5 108/134/5 81/28/5 82/145/5
f 25/30/6 103/135/6 114/147/6 77/109/6
f 111/143/5 115/148/5 95/124/5 69/94/5
f 115/148/5 113/146/5 82/145/5 95/124/5
f 91/125/6 116/149/6 112/144/6 65/95/6
f 77/109/6 114/147/6 116/149/6 91/125/6
f 32/43/3 118/120/3 117/119/3 31/42/3
f 118/120/3 98/47/3 97/48/3 117/119/3
f 120/122/4 119/121/4 33/47/4 34/48/4
f 100/42/4 99/43/4 119/121/4 120/122/4
f 122/151/5 121/150/5 101/133/5 102/134/5
f 38/52/5 35/49/5 121/150/5 122/151/5
f 100/136/6 120/153/6 123/152/6 103/135/6
f 120/153/6 34/56/6 39/53/6 123/152/6
f 125/155/5 124/154/5 104/137/5 105/138/5
f 43/60/5 40/57/5 124/154/5 125/155/5
f 106/140/6 126/157/6 117/156/6 97/139/6
f 126/157/6 44/64/6 31/61/6 117/156/6
f 127/121/4 124/131/4 40/75/4 57/47/4
f 107/43/4 104/78/4 124/131/4 127/121/4
f 43/78/3 125/132/3 118/120/3 32/43/3
f 125/132/3 105/75/3 98/47/3 118/120/3
f 119/121/4 121/131/4 35/75/4 33/47/4
f 99/43/4 101/78/4 121/131/4 119/121/4
f 38/78/3 122/132/3 128/120/3 83/43/3
f 122/132/3 102/75/3 108/47/3 128/120/3
f 127/154/5 129/158/5 109/141/5 107/137/5
f 57/57/5 58/85/5 129/158/5 127/154/5
f 110/142/6 130/159/6 126/157/6 106/140/6
f 130/159/6 54/88/6 44/64/6 126/157/6
f 134/158/5 133/160/5 132/143/5 131/141/5
f 58/85/5 70/97/5 135/160/5 129/158/5
f 112/144/6 136/161/6 130/159/6 110/142/6
f 136/161/6 68/100/6 54/88/6 130/159/6
f 137/162/5 128/151/5 108/134/5 113/146/5
f 84/163/5 83/52/5 128/151/5 137/162/5
f 103/135/6 123/152/6 138/164/6 114/147/6
f 123/152/6 39/53/6 80/114/6 138/164/6
f 135/160/5 139/165/5 115/148/5 111/143/5
f 70/97/5 96/127/5 139/165/5 135/160/5
f 143/165/5 142/162/5 141/146/5 140/148/5
f 96/127/5 84/163/5 137/162/5 139/165/5
f 116/149/6 144/166/6 136/161/6 112/144/6
f 144/166/6 94/130/6 68/100/6 136/161/6
f 114/147/6 138/164/6 144/166/6 116/149/6
f 138/164/6 80/114/6 94/130/6 144/166/6
f 140/165/2 141/162/2 113/118/2 115/121/2
f 141/158/4 142/165/4 137/121/4 113/43/4
f 143/166/3 140/159/3 115/47/3 139/120/3
f 142/167/1 143/166/1 139/120/1 137/116/1
f 131/158/2 132/160/2 111/91/2 109/43/2
f 132/158/4 133/165/4 135/121/4 111/43/4
f 134/166/3 131/159/3 109/47/3 129/120/3
f 133/161/1 134/159/1 129/47/1 135/90/1

