# ProBuilder 4.1.0
# https://unity3d.com/unity/features/worldbuilding/probuilder
# 12/12/2019 1:38:11 PM

mtllib ./Roof.mtl
o Roof

g Roof
v 2 3 2
v -1 3 2
v 2 -1 -4
v -1 -1 -4
v 2 -1 2
v -1 -1 2
v -1 2 2
v 2 2 2
v -1 2 8
v -1 3 8
v 2 3 8
v 2 2 8
v -12 2 2
v -12 3 2
v -12 2 8
v -12 3 8
v -4 3 2
v -4 2 2
v -4 3 -12
v -12 3 -12
v -12 2 -12
v -4 2 -12
v -4 2 8
v -4 3 8

vt -2 3.328201
vt 1 3.328201
vt -2 -3.882901
vt 1 -3.882901
vt 2 -4
vt -1 -4
vt 2 2
vt -1 2
vt 2 -1
vt -1 -1
vt -1 3
vt 2 3
vt -4 -1
vt -2 -1
vt -2 2
vt 4 -1
vt -2 3
vt 2 8
vt -1 8
vt 8 2
vt 8 3
vt -8 3
vt -8 2
vt 1 2
vt 1 8
vt -2 8
vt 1 3
vt 4 3
vt 4 2
vt 12 3
vt 12 2
vt -4 2
vt -4 8
vt -12 2
vt -12 8
vt 4 8
vt 12 8
vt -4 3
vt -12 3
vt 4 -12
vt 12 -12
vt -12 -12
vt -4 -12

vn 0 0.8320503 -0.5547002
vn 0 -1 0
vn 0 0 1
vn -1 0 0
vn 1 0 0
vn 0 1 0
vn 0 0 -1

usemtl GridWorldSpace
f 4/13/4 6/9/4 7/7/4
f 4/13/4 7/7/4 2/12/4
f 8/15/5 5/14/5 3/16/5
f 1/17/5 8/15/5 3/16/5
f 4/4/1 2/2/1 1/1/1
f 1/1/1 3/3/1 4/4/1
f 6/8/2 4/6/2 3/5/2
f 3/5/2 5/7/2 6/8/2
f 7/8/3 6/10/3 5/9/3
f 5/9/3 8/7/3 7/8/3
f 10/11/3 9/8/3 12/7/3
f 12/7/3 11/12/3 10/11/3
f 9/19/2 7/8/2 8/7/2
f 8/7/2 12/18/2 9/19/2
f 16/21/4 14/12/4 13/7/4
f 13/7/4 15/20/4 16/21/4
f 12/23/5 8/15/5 1/17/5
f 1/17/5 11/22/5 12/23/5
f 11/26/6 1/15/6 2/24/6
f 2/24/6 10/25/6 11/26/6
f 17/28/7 2/27/7 7/24/7
f 7/24/7 18/29/7 17/28/7
f 20/30/7 19/28/7 22/29/7
f 22/29/7 21/31/7 20/30/7
f 9/19/2 23/33/2 18/32/2
f 18/32/2 7/8/2 9/19/2
f 23/33/2 15/35/2 13/34/2
f 13/34/2 18/32/2 23/33/2
f 10/25/6 2/24/6 17/29/6
f 17/29/6 24/36/6 10/25/6
f 24/36/6 17/29/6 14/31/6
f 14/31/6 16/37/6 24/36/6
f 24/38/3 23/32/3 9/8/3
f 9/8/3 10/11/3 24/38/3
f 16/39/3 15/34/3 23/32/3
f 23/32/3 24/38/3 16/39/3
f 19/30/5 17/17/5 18/15/5
f 18/15/5 22/31/5 19/30/5
f 20/41/6 14/31/6 17/29/6
f 17/29/6 19/40/6 20/41/6
f 21/34/4 13/7/4 14/12/4
f 14/12/4 20/39/4 21/34/4
f 22/43/2 18/32/2 13/34/2
f 13/34/2 21/42/2 22/43/2

